{"title":"The Office S07E16 HDTV XviD-LOL {TheCloon}","uid":6167624,"size":183574839,"categoryP":"video","categoryS":"tv_shows","magnet":"?xt=urn:btih:ead03498c36140d678e528b5e88f46344f3ebcfa&amp;dn=The+Office+S07E16+HDTV+XviD-LOL+%7BTheCloon%7D&amp;tr=udp%3A%2F%2Ftracker.openbittorrent.com%3A80&amp;tr=udp%3A%2F%2Fopen.demonii.com%3A1337&amp;tr=udp%3A%2F%2Ftracker.coppersurfer.tk%3A6969&amp;tr=udp%3A%2F%2Fexodus.desync.com%3A6969","seeders":0,"leechers":1,"uploader":"TheCloon","files":4,"time":1297442538,"description":"###\n\nThe Office S07E16 HDTV XviD-LOL\n\n###\n &lt;a href=&quot;\nhttp://www.tvrage.com/the_office&quot; rel=&quot;nofollow&quot; target=&quot;_NEW&quot;&gt;\nhttp://www.tvrage.com/the_office&lt;/a&gt;\n\n###\n\nIt's Valentine's Day in the Office and the public displays of affection between Michael and Holly are making everyone uncomfortable. The aftermath of a bottomless champagne lunch causes complications for Jim and Pam. After Gabe designs a romantic treasure hunt for Erin\n\n###\n[CODE]\n\nFormat                           : AVI\nFormat/Info                      : Audio Video Interleave\nFile size                        : 175 MiB\nDuration                         : 21mn 27s\nOverall bit rate                 : 1 140 Kbps\nWriting application              : VirtualDubMod 1.5.10.2 (build 2540/release)\nWriting library                  : VirtualDubMod build 2540/release\n\nVideo\nID                               : 0\nFormat                           : MPEG-4 Visual\nFormat profile                   : Advanced Simple@L5\nFormat settings, BVOP            : 2\nFormat settings, QPel            : No\nFormat settings, GMC             : No warppoints\nFormat settings, Matrix          : Default (H.263)\nCodec ID                         : XVID\nCodec ID/Hint                    : XviD\nDuration                         : 21mn 27s\nBit rate                         : 1 006 Kbps\nWidth                            : 624 pixels\nHeight                           : 352 pixels\nDisplay aspect ratio             : 16:9\nFrame rate                       : 23.976 fps\nColor space                      : YUV\nChroma subsampling               : 4:2:0\nBit depth                        : 8 bits\nScan type                        : Progressive\nCompression mode                 : Lossy\nBits/(Pixel*Frame)               : 0.191\nStream size                      : 154 MiB (88%)\nWriting library                  : XviD 1.2.1 (UTC 2008-12-04)\n\nAudio\nID                               : 1\nFormat                           : MPEG Audio\nFormat version                   : Version 1\nFormat profile                   : Layer 3\nMode                             : Joint stereo\nMode extension                   : MS Stereo\nCodec ID                         : 55\nCodec ID/Hint                    : MP3\nDuration                         : 21mn 27s\nBit rate mode                    : Variable\nBit rate                         : 122 Kbps\nNominal bit rate                 : 128 Kbps\nChannel(s)                       : 2 channels\nSampling rate                    : 48.0 KHz\nCompression mode                 : Lossy\nStream size                      : 18.7 MiB (11%)\nAlignment                        : Aligned on interleaves\nInterleave, duration             : 24 ms (0.58 video frame)\nInterleave, preload duration     : 497 ms\nWriting library                  : LAME3.98r\nEncoding settings                : -m j -V 4 -q 3 -lowpass 17 --abr 128\n[/CODE]","torrent":{"xt":"urn:btih:ead03498c36140d678e528b5e88f46344f3ebcfa","amp;dn":"The+Office+S07E16+HDTV+XviD-LOL+%7BTheCloon%7D","amp;tr":["udp%3A%2F%2Ftracker.openbittorrent.com%3A80","udp%3A%2F%2Fopen.demonii.com%3A1337","udp%3A%2F%2Ftracker.coppersurfer.tk%3A6969","udp%3A%2F%2Fexodus.desync.com%3A6969"],"infoHash":"ead03498c36140d678e528b5e88f46344f3ebcfa","infoHashBuffer":{"type":"Buffer","data":[234,208,52,152,195,97,64,214,120,229,40,181,232,143,70,52,79,62,188,250]},"announce":[],"urlList":[]}}